<svg id="Layer_1" data-name="Layer 1" xmlns="http://www.w3.org/2000/svg" viewBox="0 0 16.3 21.63"><defs><style>.cls-1{fill:#c8bfe7;}.cls-2{fill:#a349a4;}.cls-3{fill:#fff;}.cls-4{font-size:4.39px;font-family:Arial-Black, Arial;letter-spacing:-0.1em;}.cls-5{letter-spacing:-0.11em;}</style></defs><title>splash2</title><rect class="cls-1" x="2.28" y="2" width="1" height="3"/><rect class="cls-1" x="2.28" y="5" width="1" height="9"/><rect class="cls-1" x="10.28" y="5" width="1" height="1"/><rect class="cls-1" x="10.28" y="9" width="1" height="5"/><polygon class="cls-2" points="2.27 0 0.28 0 0.28 16 2.27 16 16.27 16 16.27 14 10.28 14 10.28 9 6.28 9 6.28 14 2.27 14 2.27 6 10.28 6 10.28 5 2.27 5 2.27 2 14.28 2 14.28 11 16.27 11 16.27 2 16.27 0 2.27 0"/><polygon class="cls-3" points="14.28 11 14.28 9 14.28 6 14.28 5 14.28 2 3.27 2 3.27 5 11.28 5 11.28 6 3.27 6 3.27 9 3.27 14 6.28 14 6.28 9 11.28 9 11.28 14 14.28 14 16.27 14 16.27 11 14.28 11"/><text class="cls-4" transform="translate(0 20.29)">MO<tspan class="cls-5" x="6.92" y="0">N</tspan><tspan x="10.1" y="0">AD</tspan></text></svg>